<svg xmlns="http://www.w3.org/2000/svg" xmlns:xlink="http://www.w3.org/1999/xlink" viewBox="0 0 555.61 276.24"><defs><style>.cls-1{isolation:isolate;}.cls-2{font-size:18.08px;font-family:GillSansMT, Gill Sans MT;letter-spacing:0.45em;}.cls-2,.cls-5,.cls-6,.cls-7{fill:#083d61;}.cls-3{letter-spacing:0.35em;}.cls-4{letter-spacing:0.45em;}.cls-6{opacity:0.87;}.cls-7{opacity:0.76;}.cls-8{fill:url(#linear-gradient);}.cls-9{fill:#005084;}.cls-10,.cls-12{fill:#fff;}.cls-10{opacity:0.26;}.cls-11{fill:#d02027;}.cls-13{opacity:0.6;fill:url(#linear-gradient-2);}.cls-13,.cls-14{mix-blend-mode:color-dodge;}.cls-14{fill:url(#linear-gradient-3);}</style><linearGradient id="linear-gradient" x1="20.45" y1="-69.49" x2="267.25" y2="436.08" gradientUnits="userSpaceOnUse"><stop offset="0" stop-color="#27b7ea"/><stop offset="0.67" stop-color="#1d76bb"/><stop offset="1" stop-color="#1d76bb"/></linearGradient><linearGradient id="linear-gradient-2" x1="85.42" y1="68.05" x2="47.68" y2="38.41" gradientTransform="matrix(1.01, -0.01, 0.01, 1, -4.48, 3.25)" gradientUnits="userSpaceOnUse"><stop offset="0" stop-color="#b3b3b3"/><stop offset="0.68" stop-color="#363636"/><stop offset="1" stop-color="#010101"/></linearGradient><linearGradient id="linear-gradient-3" x1="4.32" y1="105.08" x2="88.9" y2="183.62" gradientTransform="matrix(1, 0, 0, 1, 0, 0)" xlink:href="#linear-gradient-2"/></defs><title>Asset 1</title><g class="cls-1"><g id="Layer_2" data-name="Layer 2"><g id="Layer_1-2" data-name="Layer 1"><text class="cls-2" transform="translate(211.68 271.14)">REN<tspan class="cls-3" x="58.49" y="0">T</tspan><tspan class="cls-4" x="75.74" y="0">ALS </tspan></text><circle class="cls-5" cx="189.89" cy="264.6" r="7.87"/><circle class="cls-6" cx="166.99" cy="264.6" r="6.08"/><circle class="cls-7" cx="147.67" cy="264.6" r="3.22"/><circle class="cls-5" cx="354.08" cy="264.6" r="7.87"/><circle class="cls-6" cx="376.98" cy="264.6" r="6.08"/><circle class="cls-7" cx="396.3" cy="264.6" r="3.22"/><path class="cls-5" d="M35.22,215.57H46.5v2.54H38.07v6.07h8.14v2.55H38.07v6.18h8.7v2.54H35.22Z"/><path class="cls-5" d="M71.5,215.57h3.44l-8,9.6,8.51,10.3H72.05l-6.78-8.25-6.84,8.25H55l8.56-10.3-7.95-9.59H59l6.24,7.6Z"/><path class="cls-5" d="M102.18,230.85V234a14.87,14.87,0,0,1-7.23,1.71,11.15,11.15,0,0,1-5.66-1.34,9.85,9.85,0,0,1-3.67-3.69,10,10,0,0,1-1.35-5.08,9.71,9.71,0,0,1,3.1-7.31,10.64,10.64,0,0,1,7.64-3,17.94,17.94,0,0,1,7,1.64V220a13.71,13.71,0,0,0-6.82-2,7.89,7.89,0,0,0-5.68,2.16,7.17,7.17,0,0,0-2.26,5.41A7.09,7.09,0,0,0,89.44,231a7.92,7.92,0,0,0,5.68,2.11A12.88,12.88,0,0,0,102.18,230.85Z"/><path class="cls-5" d="M113,215.57h2.85v17.3h9v2.59H113Z"/><path class="cls-5" d="M148.41,215.57h2.86v11.29a13.48,13.48,0,0,1-.33,3.46,7.55,7.55,0,0,1-.83,1.95,6.24,6.24,0,0,1-1.2,1.39,9.14,9.14,0,0,1-6.18,2,9.23,9.23,0,0,1-6.24-2,6.52,6.52,0,0,1-1.2-1.4,7.23,7.23,0,0,1-.81-1.9,14.06,14.06,0,0,1-.32-3.53V215.57H137v11.29a8.37,8.37,0,0,0,.64,3.9,4.56,4.56,0,0,0,2,1.76,6.78,6.78,0,0,0,3.09.66,6.25,6.25,0,0,0,4.13-1.32,4.11,4.11,0,0,0,1.21-1.68,10.36,10.36,0,0,0,.37-3.32Z"/><path class="cls-5" d="M167.44,227.13l-2.16-1.32a9.84,9.84,0,0,1-2.9-2.45,4.64,4.64,0,0,1-.86-2.77,4.89,4.89,0,0,1,1.63-3.82,6.09,6.09,0,0,1,4.24-1.47,8,8,0,0,1,4.57,1.4v3.23a6.59,6.59,0,0,0-4.63-2.07,3.83,3.83,0,0,0-2.29.65,2,2,0,0,0-.9,1.65,2.55,2.55,0,0,0,.66,1.67,8.36,8.36,0,0,0,2.13,1.64l2.17,1.29q3.64,2.17,3.64,5.54a5.07,5.07,0,0,1-1.6,3.89,5.86,5.86,0,0,1-4.17,1.49,8.74,8.74,0,0,1-5.37-1.81v-3.62a6.7,6.7,0,0,0,5.34,2.92,3.36,3.36,0,0,0,2.23-.74,2.34,2.34,0,0,0,.89-1.87Q170.06,228.75,167.44,227.13Z"/><path class="cls-5" d="M183.19,215.57H186v19.9h-2.85Z"/><path class="cls-5" d="M210.34,215.57h2.84l-8.41,20h-.65l-8.57-20h2.87l6,14Z"/><path class="cls-5" d="M222.65,215.57h11.28v2.54H225.5v6.07h8.14v2.55H225.5v6.18h8.7v2.54H222.65Z"/><path class="cls-5" d="M281.87,215.57h3.56L276.8,225l10.75,10.45h-3.89l-10.17-9.83v9.83h-2.85v-19.9h2.85v9.1Z"/><path class="cls-5" d="M303.39,215.45h2l8.92,20h-2.92l-2.65-5.9h-8.49l-2.49,5.9h-2.93ZM307.57,227l-3.21-7.21-3,7.21Z"/><path class="cls-5" d="M328.7,227.13l-2.16-1.32a9.84,9.84,0,0,1-2.9-2.45,4.64,4.64,0,0,1-.86-2.77,4.89,4.89,0,0,1,1.63-3.82,6.09,6.09,0,0,1,4.24-1.47,8,8,0,0,1,4.57,1.4v3.23a6.59,6.59,0,0,0-4.63-2.07,3.83,3.83,0,0,0-2.29.65,2,2,0,0,0-.9,1.65,2.55,2.55,0,0,0,.66,1.67,8.36,8.36,0,0,0,2.13,1.64l2.17,1.29q3.64,2.17,3.64,5.54a5.07,5.07,0,0,1-1.6,3.89,5.86,5.86,0,0,1-4.17,1.49,8.74,8.74,0,0,1-5.37-1.81v-3.62a6.7,6.7,0,0,0,5.34,2.92,3.36,3.36,0,0,0,2.23-.74,2.34,2.34,0,0,0,.89-1.87Q331.33,228.75,328.7,227.13Z"/><path class="cls-5" d="M344.46,215.57h2.85v19.9h-2.85Z"/><path class="cls-5" d="M385.59,215.57h2.85v17.3h9v2.59H385.59Z"/><path class="cls-5" d="M407.21,215.57h2.85v19.9h-2.85Z"/><path class="cls-5" d="M434.36,215.57h2.84l-8.41,20h-.65l-8.57-20h2.87l6,14Z"/><path class="cls-5" d="M446.7,215.57h2.85v19.9H446.7Z"/><path class="cls-5" d="M477.06,215.57h2.71v19.9h-2.45L464,220.14v15.32h-2.68v-19.9h2.31L477.06,231Z"/><path class="cls-5" d="M502.07,225.66h6.68v8.43a18.22,18.22,0,0,1-7.29,1.59,10.81,10.81,0,0,1-7.9-2.88,9.54,9.54,0,0,1-3-7.11,9.9,9.9,0,0,1,3.06-7.42,10.61,10.61,0,0,1,7.68-3,13.61,13.61,0,0,1,3.19.36,26.29,26.29,0,0,1,3.82,1.33v2.9a14,14,0,0,0-7.06-2.06,7.49,7.49,0,0,0-5.5,2.22,7.88,7.88,0,0,0,0,11,8,8,0,0,0,5.75,2.15,13.44,13.44,0,0,0,4.09-.78l.27-.09V228.2h-3.83Z"/><path class="cls-8" d="M201.83,0V190.68H0V99.62A98,98,0,0,1,.67,88.1,99.63,99.63,0,0,1,99.62,0Z"/><polygon class="cls-9" points="159.11 96.63 154.66 63.01 131.71 63.01 96.91 96.63 159.11 96.63"/><polygon class="cls-9" points="104.81 93.44 133 66.21 151.86 66.21 155.47 93.44 104.81 93.44"/><polygon class="cls-9" points="117.88 63.01 105.71 63.01 70.91 96.63 83.08 96.63 117.88 63.01"/><polygon class="cls-9" points="78.81 93.44 107 66.21 109.97 66.21 81.78 93.44 78.81 93.44"/><path class="cls-9" d="M98.89,147.68c-27.89-1.44-50.05-23.74-50.05-51,0-28.24,23.69-51.13,52.92-51.13s52.92,22.89,52.92,51.13h34.8c0-46.8-39.27-84.74-87.72-84.74S14,49.83,14,96.63s39.27,84.74,87.72,84.74h32Z"/><path class="cls-9" d="M101.76,178.18c-46.61,0-84.52-36.58-84.52-81.55s37.92-81.55,84.52-81.55c45.5,0,82.71,34.86,84.46,78.35H157.78c-1.72-28.47-26.19-51.13-56-51.13-30.94,0-56.12,24.37-56.12,54.32,0,28.49,22.69,52.06,51.88,54.16l28.34,27.38Z"/><polygon class="cls-9" points="139.37 147.75 174.18 181.37 185.75 181.37 150.94 147.75 139.37 147.75"/><polygon class="cls-9" points="175.47 178.18 147.28 150.95 149.65 150.95 177.84 178.18 175.47 178.18"/><polygon class="cls-9" points="147.59 181.37 160.34 181.37 125.54 147.75 112.79 147.75 147.59 181.37"/><polygon class="cls-9" points="148.88 178.18 120.7 150.95 124.25 150.95 152.44 178.18 148.88 178.18"/><polygon class="cls-9" points="387.73 188.44 342.74 188.44 273.39 119.11 272.75 118.47 272.13 119.09 252.24 139.08 252.24 188.25 216.35 188.25 216.35 16.15 252.24 16.15 252.24 92.37 329.93 16.15 374.66 16.15 295.21 95.91 318.6 119.3 387.73 188.44"/><polygon class="cls-9" points="380.01 185.24 344.07 185.24 277.98 119.17 272.75 113.95 267.72 119 249.05 137.75 249.05 185.05 219.54 185.05 219.54 19.34 249.05 19.34 249.05 99.97 331.24 19.34 366.97 19.34 290.71 95.91 314.11 119.33 380.01 185.24"/><path class="cls-10" d="M99.62,0H201.83V116.49C144.17,113.15,92,107.1,48.9,99,36.57,96.68,25,94.2,14.2,91.58,9.54,90.45,5,89.28.67,88.1A99.63,99.63,0,0,1,99.62,0Z"/><path class="cls-10" d="M290.71,95.91l23.4,23.42c-3.34,0-6.69,0-10.06,0q-13.16,0-26.07-.19c-1.53,0-3.07,0-4.58-.06l-1.26,0c-1.47,0-2.94,0-4.41-.1q-24.59-.48-48.18-1.6V19.35H249V100l82.19-80.62H367Z"/><polygon class="cls-9" points="466.92 156.36 447.69 156.36 447.69 15.02 411.79 15.02 411.79 187.1 498.73 187.1 466.92 156.36"/><polygon class="cls-9" points="490.83 183.9 414.98 183.9 414.98 18.21 444.48 18.21 444.48 159.56 465.63 159.56 490.83 183.9"/><polygon class="cls-11" points="513.21 156.36 545.02 187.1 555.61 187.1 555.61 156.36 513.21 156.36"/><polygon class="cls-9" points="479.67 156.36 511.47 187.1 532.27 187.1 500.47 156.36 479.67 156.36"/><path class="cls-10" d="M444.48,18.21v94.38Q430,113.81,415,114.76V18.21Z"/><polygon class="cls-12" points="366.97 19.34 358.86 27.64 350.7 35.87 334.36 52.34 317.91 68.69 309.68 76.86 301.4 84.98 309.51 76.69 317.67 68.46 334.01 51.99 350.46 35.64 358.69 27.46 366.97 19.34"/><polygon class="cls-12" points="219.54 19.34 219.66 29.69 219.71 40.03 219.79 60.72 219.71 81.4 219.66 91.75 219.54 102.09 219.42 91.75 219.38 81.4 219.29 60.72 219.38 40.03 219.42 29.69 219.54 19.34"/><path class="cls-12" d="M421.62,18.2,433,18.06,444.48,18h.21v.22q0,12.75,0,25.5l-.07,12.75-.15,12.75-.15-12.75-.07-12.75q-.05-12.75,0-25.5l.22.22L433,18.33Z"/><path class="cls-13" d="M103.8,11.9c0,.07-5.94,0-12.74.79a95.91,95.91,0,0,0-18,3.79,87.73,87.73,0,0,0-32.5,19.4A81,81,0,0,0,20.84,64.37c-6.44,15.29-6.8,28-6.73,28.06s-.57-23.17,13.67-43.81A78,78,0,0,1,39,35.81a88.2,88.2,0,0,1,31.86-19.4,91.26,91.26,0,0,1,22.84-4.3A93.63,93.63,0,0,1,103.8,11.9Z"/><path class="cls-14" d="M105.25,181.36c1.24,0,3.17-.14,3.17-.11s-6.57.49-9.26.6c-12.78.5-31.23-3-47.87-14.11a86.29,86.29,0,0,1-33.64-44C13.1,109.37,13.85,97.27,14,97.25a87.75,87.75,0,0,0,3.53,23.12,85.39,85.39,0,0,0,23.75,37.79,93.42,93.42,0,0,0,35,19.69,86.91,86.91,0,0,0,12.88,2.8A91.4,91.4,0,0,0,105.25,181.36Z"/><path class="cls-12" d="M189.48,96.63a75.32,75.32,0,0,0-1.33-13.06,90.33,90.33,0,0,0-3.21-12.72,84.44,84.44,0,0,0-11.87-23.29,81.08,81.08,0,0,0-18.48-18.46c-1.81-1.23-3.58-2.52-5.48-3.61-.94-.56-1.86-1.15-2.82-1.68l-2.9-1.54-1.45-.78-1.49-.7-3-1.39c-2-.89-4.06-1.65-6.09-2.48,2,.79,4.12,1.51,6.14,2.37l3,1.33,1.5.67,1.46.75,2.92,1.52c1,.53,1.89,1.11,2.84,1.67,1.92,1.08,3.7,2.37,5.52,3.59a81.4,81.4,0,0,1,18.69,18.44,84.86,84.86,0,0,1,11.78,23.47A83.52,83.52,0,0,1,189.48,96.63Z"/></g></g></g></svg>